<svg xmlns="http://www.w3.org/2000/svg" viewBox="0 0 469.49 95.73"><defs><style>.cls-1{fill:#452b7f;}.cls-2{fill:#7c5bbb;}</style></defs><title>tayrosoft-logo</title><g id="Capa_2" data-name="Capa 2"><g id="Capa_1-2" data-name="Capa 1"><path class="cls-1" d="M194.75,47.86a42.27,42.27,0,0,1,84.53,0,47.87,47.87,0,1,1-95.73,0,42.27,42.27,0,1,0,84.53,0v-.3a36.67,36.67,0,1,0-73.33,0"/><path class="cls-2" d="M194.75,47.86a42.27,42.27,0,0,1,84.53,0,47.87,47.87,0,0,0-95.73,0,42.27,42.27,0,1,0,84.53,0h0a36.67,36.67,0,0,1-73.33-.3Z"/><circle class="cls-2" cx="204.36" cy="45.36" r="2.8"/><circle class="cls-2" cx="220.66" cy="29.06" r="2.8"/><circle class="cls-2" cx="214.25" cy="55.24" r="2.8"/><circle class="cls-2" cx="230.54" cy="38.94" r="2.8"/><circle class="cls-2" cx="238.69" cy="30.79" r="2.8"/><circle class="cls-1" cx="224.13" cy="65.12" r="2.8"/><circle class="cls-1" cx="240.43" cy="48.82" r="2.8"/><circle class="cls-1" cx="234.01" cy="75" r="2.8"/><circle class="cls-1" cx="242.16" cy="66.86" r="2.8"/><path class="cls-2" d="M214.93,39.62a.62.62,0,0,1-.87,0l-4-4a.62.62,0,1,1,.87-.87l4,4A.62.62,0,0,1,214.93,39.62Z"/><path class="cls-2" d="M231.22,23.32a.6.6,0,0,1-.86,0l-4-4a.62.62,0,0,1,0-.87.6.6,0,0,1,.86,0l4,4A.62.62,0,0,1,231.22,23.32Z"/><path class="cls-2" d="M224.81,49.5a.62.62,0,0,1-.87,0l-4-4a.6.6,0,0,1,0-.86.62.62,0,0,1,.87,0l4,4A.6.6,0,0,1,224.81,49.5Z"/><path class="cls-1" d="M234.69,59.39a.62.62,0,0,1-.87,0l-4-4a.62.62,0,0,1,.87-.87l4,4A.62.62,0,0,1,234.69,59.39Z"/><path class="cls-1" d="M251,43.09a.62.62,0,0,1-.87,0l-4-4a.62.62,0,0,1,.87-.87l4,4A.62.62,0,0,1,251,43.09Z"/><path class="cls-1" d="M252.72,61.12a.6.6,0,0,1-.86,0l-4-4a.62.62,0,0,1,0-.87.6.6,0,0,1,.86,0l4,4A.62.62,0,0,1,252.72,61.12Z"/><path class="cls-1" d="M260.87,53a.6.6,0,0,1-.86,0l-4-4a.62.62,0,0,1,0-.87.6.6,0,0,1,.86,0l4,4A.62.62,0,0,1,260.87,53Z"/><path class="cls-2" d="M0,19.69H41.35V29.93H0ZM15.36,24.3H26V76.08H15.36Z"/><path class="cls-2" d="M61.36,19.69h6.75L89.67,76.08H78.23L64.73,37.57,51.24,76.08H39.8ZM50.15,56.8H79.82V67H50.15Z"/><path class="cls-2" d="M111.47,54.32V76.08H100.85V54.32L84.24,19.69H95.37L106.16,44l10.78-24.28h11.13Z"/><path class="cls-2" d="M132.34,19.65H143V76.08H132.34Zm4.23,23.5h19.62a5.11,5.11,0,0,0,2.87-.81A5.29,5.29,0,0,0,161,40a9,9,0,0,0,.72-3.49A8.49,8.49,0,0,0,161,33a5,5,0,0,0-4.83-3.14H136.57V19.65h20.48a15.68,15.68,0,0,1,8.18,2.09,14.25,14.25,0,0,1,5.47,5.92,19.34,19.34,0,0,1,1.94,8.86,19.34,19.34,0,0,1-1.94,8.86,14.16,14.16,0,0,1-5.49,5.92,15.83,15.83,0,0,1-8.16,2.09H136.57Zm11.86,8.5,11.37-1.79L175,76.08H162.13Z"/><path class="cls-1" d="M305,76.64l-3.86-.81a33.51,33.51,0,0,1-7.25-2.39,27.06,27.06,0,0,1-6.07-3.78l4.92-8.76A23.89,23.89,0,0,0,300.27,65,26.92,26.92,0,0,0,309,66.48q5.21,0,8.07-1.76a5.56,5.56,0,0,0,2.87-5v0a4.9,4.9,0,0,0-1.28-3.56,7.58,7.58,0,0,0-3.33-1.94,40.22,40.22,0,0,0-5.28-1.13,1,1,0,0,0-.21,0,.6.6,0,0,1-.22,0l-.85-.11a53.38,53.38,0,0,1-9.39-2.23,13.79,13.79,0,0,1-6.32-4.7q-2.59-3.34-2.6-9.52v0A17.15,17.15,0,0,1,292.94,27,15.42,15.42,0,0,1,300,21.12a28,28,0,0,1,11.25-2,29,29,0,0,1,6.19.69,33.91,33.91,0,0,1,6.19,2A35.34,35.34,0,0,1,329.4,25l-4.5,9a28.52,28.52,0,0,0-6.81-3.49,20.53,20.53,0,0,0-6.81-1.24c-3.25,0-5.78.53-7.56,1.61A5,5,0,0,0,301,35.37v0a5.26,5.26,0,0,0,1.4,3.86,8.27,8.27,0,0,0,3.45,2.08,54.83,54.83,0,0,0,5.78,1.39,1.7,1.7,0,0,0,.31.06l.31.06.45.1a3.12,3.12,0,0,0,.44.09,46.84,46.84,0,0,1,8.94,2.55,13.88,13.88,0,0,1,6,4.8c1.6,2.22,2.4,5.23,2.4,9.06v.08A16.45,16.45,0,0,1,328,68.77a15.79,15.79,0,0,1-7.35,5.86,30.18,30.18,0,0,1-11.62,2Z"/><path class="cls-1" d="M348.85,74.07a18,18,0,0,1-7.24-7.3,22.59,22.59,0,0,1-2.56-10.92v-16A22.57,22.57,0,0,1,341.61,29a17.92,17.92,0,0,1,7.24-7.3,24,24,0,0,1,21.6,0,17.92,17.92,0,0,1,7.24,7.3,22.57,22.57,0,0,1,2.55,10.91v16a22.58,22.58,0,0,1-2.55,10.92,18,18,0,0,1-7.24,7.3,24,24,0,0,1-21.6,0Zm15.84-9.28a8.33,8.33,0,0,0,3.36-3.47,11,11,0,0,0,1.18-5.19V39.6a11,11,0,0,0-1.18-5.19,8.41,8.41,0,0,0-3.36-3.48,11,11,0,0,0-10.08,0,8.41,8.41,0,0,0-3.36,3.48,11,11,0,0,0-1.18,5.19V56.13a11,11,0,0,0,1.18,5.19,8.33,8.33,0,0,0,3.36,3.47,10.94,10.94,0,0,0,10.08,0Z"/><path class="cls-1" d="M391.5,19.67h10.62V76.06H391.5Zm3.87,0h33.17V29.91H395.37Zm0,23.77h28.9V53.68h-28.9Z"/><path class="cls-1" d="M428.15,19.67h41.34V29.91H428.15Zm15.36,4.61h10.62V76.06H443.51Z"/></g></g></svg>