<svg xmlns="http://www.w3.org/2000/svg" viewBox="0 0 2574.19 524.87"><defs><style>.cls-1{fill:#f2f2f2;}.cls-2{fill:#e6e6e6;}</style></defs><title>Recurso 4</title><g id="Capa_2" data-name="Capa 2"><g id="Capa_1-2" data-name="Capa 1"><path class="cls-1" d="M1067.78,262.44c0-128,103.75-231.74,231.73-231.74s231.73,103.75,231.73,231.74C1531.24,117.5,1413.75,0,1268.81,0s-262.44,117.5-262.44,262.44c0,128,103.75,231.73,231.73,231.73s231.73-103.75,231.73-231.73h0c0,111-90,199.34-201,199.34s-201-90-201-201Z"/><circle class="cls-1" cx="1120.5" cy="248.68" r="15.35"/><circle class="cls-1" cx="1209.87" cy="159.32" r="15.35"/><circle class="cls-1" cx="1174.69" cy="302.87" r="15.35"/><circle class="cls-1" cx="1264.05" cy="213.5" r="15.35"/><circle class="cls-1" cx="1308.74" cy="168.82" r="15.35"/><path class="cls-1" d="M1178.42,217.23a3.36,3.36,0,0,1-4.76,0L1152,195.52a3.37,3.37,0,1,1,4.76-4.76l21.71,21.71A3.37,3.37,0,0,1,1178.42,217.23Z"/><path class="cls-1" d="M1267.78,127.87a3.37,3.37,0,0,1-4.76,0l-21.71-21.71a3.37,3.37,0,0,1,4.76-4.76l21.71,21.71A3.36,3.36,0,0,1,1267.78,127.87Z"/><path class="cls-1" d="M1232.61,271.42a3.37,3.37,0,0,1-4.76,0l-21.71-21.71a3.36,3.36,0,1,1,4.75-4.76l21.72,21.71A3.37,3.37,0,0,1,1232.61,271.42Z"/><path class="cls-1" d="M0,107.93H226.7v56.15H0Zm84.22,25.31h58.26V417.15H84.22Z"/><path class="cls-1" d="M336.43,107.93h37L491.67,417.15H428.94L354.94,206l-74,211.18H218.2ZM275,311.45H437.65V367.6H275Z"/><path class="cls-1" d="M611.2,297.84V417.15H552.93V297.84l-91-189.91h61l59.12,133.13,59.13-133.13h61Z"/><path class="cls-1" d="M725.6,107.72h58.27V417.15H725.6ZM748.78,236.6H856.39a28.06,28.06,0,0,0,15.73-4.47,28.9,28.9,0,0,0,10.52-12.76,48.71,48.71,0,0,0,3.94-19.14,46.52,46.52,0,0,0-3.71-19.14,29.07,29.07,0,0,0-10.54-12.76,28.38,28.38,0,0,0-15.94-4.47H748.78V107.72H861.07q25.51,0,44.87,11.49a77.64,77.64,0,0,1,30,32.43q10.64,21,10.64,48.59t-10.64,48.59a77.45,77.45,0,0,1-30.09,32.43q-19.46,11.49-44.76,11.49H748.78Zm65.07,46.57,62.31-9.78,83.37,143.76H888.92Z"/><path class="cls-2" d="M1067.78,262.44c0-128,103.75-231.74,231.73-231.74s231.73,103.75,231.73,231.74c0,144.93-117.49,262.43-262.43,262.43s-262.44-117.5-262.44-262.43c0,128,103.75,231.73,231.73,231.73s231.73-103.75,231.73-231.73v-1.69c0-111-90-201-201-201s-201,90-201,201"/><circle class="cls-2" cx="1228.88" cy="357.06" r="15.35"/><circle class="cls-2" cx="1318.24" cy="267.69" r="15.35"/><circle class="cls-2" cx="1283.06" cy="411.24" r="15.35"/><circle class="cls-2" cx="1327.75" cy="366.56" r="15.35"/><path class="cls-2" d="M1286.79,325.61a3.36,3.36,0,0,1-4.75,0l-21.72-21.71a3.37,3.37,0,1,1,4.76-4.76l21.71,21.71A3.36,3.36,0,0,1,1286.79,325.61Z"/><path class="cls-2" d="M1376.16,236.24a3.36,3.36,0,0,1-4.76,0l-21.71-21.71a3.37,3.37,0,0,1,4.76-4.76l21.71,21.72A3.36,3.36,0,0,1,1376.16,236.24Z"/><path class="cls-2" d="M1385.66,335.11a3.34,3.34,0,0,1-4.75,0l-21.72-21.71a3.37,3.37,0,0,1,4.76-4.76l21.71,21.72A3.34,3.34,0,0,1,1385.66,335.11Z"/><path class="cls-2" d="M1430.35,290.43a3.36,3.36,0,0,1-4.76,0l-21.71-21.71a3.36,3.36,0,0,1,4.75-4.76l21.72,21.71A3.37,3.37,0,0,1,1430.35,290.43Z"/><path class="cls-2" d="M1672.28,420.23l-21.15-4.46a186.32,186.32,0,0,1-39.78-13.08A152.29,152.29,0,0,1,1578.08,382l27-48.06a130.7,130.7,0,0,0,41.26,22.65,147.79,147.79,0,0,0,48.07,8q28.48,0,44.23-9.68t15.73-27.33v-.21q0-12.33-7-19.57a41.86,41.86,0,0,0-18.28-10.63,220.87,220.87,0,0,0-28.93-6.16,3.48,3.48,0,0,0-1.17-.22,3.82,3.82,0,0,1-1.17-.21l-4.68-.64q-31-4.89-51.46-12.23T1607,251.91q-14.26-18.39-14.25-52.21v-.21q0-30,13.39-51.26t38.92-32.42q25.51-11.18,61.68-11.17a157.09,157.09,0,0,1,33.91,3.83,183.61,183.61,0,0,1,33.92,11.06A189.44,189.44,0,0,1,1806.05,137l-24.67,49.34a156.7,156.7,0,0,0-37.32-19.14,113.12,113.12,0,0,0-37.32-6.8q-26.81,0-41.48,8.83T1650.6,194v.21q0,13.41,7.65,21.16a45.47,45.47,0,0,0,18.92,11.38,297.81,297.81,0,0,0,31.7,7.65,12.27,12.27,0,0,0,1.69.32c.56.08,1.13.18,1.71.32.84.14,1.66.32,2.44.53a19.59,19.59,0,0,0,2.45.53q29.34,5.76,49,13.94A76.4,76.4,0,0,1,1799,276.37q13.15,18.17,13.18,49.65v.42q0,29.57-13.83,50.62t-40.29,32.12q-26.49,11.06-63.69,11.05Z"/><path class="cls-2" d="M1912.7,406.09a98.39,98.39,0,0,1-39.66-40q-14-25.85-14-59.87V218.63q0-34,14-59.87a98.3,98.3,0,0,1,39.66-40q25.63-14.16,59.22-14.15t59.24,14.15a98.42,98.42,0,0,1,39.66,40q14,25.85,14,59.87v87.61q0,34-14,59.87a98.51,98.51,0,0,1-39.66,40q-25.64,14.15-59.24,14.14T1912.7,406.09Zm86.88-50.83a45.79,45.79,0,0,0,18.39-19q6.49-12.33,6.49-28.5V217.14q0-16.15-6.49-28.5a45.79,45.79,0,0,0-18.39-19q-11.91-6.69-27.66-6.7t-27.64,6.7a45.87,45.87,0,0,0-18.4,19q-6.48,12.35-6.48,28.5v90.59q0,16.17,6.48,28.5a45.87,45.87,0,0,0,18.4,19q11.91,6.71,27.64,6.7T1999.58,355.26Z"/><path class="cls-2" d="M2146.53,107.83h58.27V417h-58.27Zm21.27,0h181.82V164H2167.8Zm0,130.36h158.43v56.14H2167.8Z"/><path class="cls-2" d="M2347.49,107.83h226.7V164h-226.7Zm84.22,25.31H2490V417h-58.27Z"/></g></g></svg>